<svg viewBox="0 0 420 280" xmlns="http://www.w3.org/2000/svg">
  <defs>
    <linearGradient id="g" x1="0" y1="0" x2="0" y2="1">
      <stop offset="0" stop-color="#e8f7ef"/>
      <stop offset="1" stop-color="#ffffff"/>
    </linearGradient>
  </defs>
  <rect x="2" y="2" width="416" height="276" rx="18" fill="url(#g)" stroke="#d6d6d6" stroke-width="2"/>
  
  <g fill="none" stroke="#2b2b2b" stroke-width="7" stroke-linecap="round">
    <rect x="150" y="205" width="55" height="18" rx="6" fill="#b0b6bd" stroke="none"/>
    <line x1="177" y1="205" x2="177" y2="155"/>
    <line x1="177" y1="155" x2="235" y2="115"/>
    <circle cx="177" cy="155" r="9" fill="#3fae5e" stroke="none"/>
    <line x1="235" y1="115" x2="215" y2="65"/>
    <circle cx="235" cy="115" r="9" fill="#3fae5e" stroke="none"/>
    <circle cx="215" cy="65" r="8" fill="#3fae5e" stroke="none"/>
  </g>
  <g stroke="#3fae5e" stroke-width="3" fill="none" stroke-dasharray="5 5">
    <circle cx="215" cy="130" r="75"/>
  </g>
  <g stroke="#2b2b2b" stroke-width="5" fill="none" stroke-linecap="round">
    <circle cx="330" cy="150" r="14" fill="#e0a63f" stroke="none"/>
    <line x1="330" y1="164" x2="330" y2="205"/>
    <line x1="330" y1="180" x2="310" y2="195"/>
    <line x1="330" y1="180" x2="350" y2="195"/>
    <line x1="330" y1="205" x2="315" y2="222"/>
    <line x1="330" y1="205" x2="345" y2="222"/>
  </g>

  <text x="210.0" y="262" font-family="Gill Sans, Arial, sans-serif" font-size="20" font-weight="bold" text-anchor="middle" fill="#333333">Robô Colaborativo (Cobot)</text>
</svg>